{"title":"SUNNY SUNNY (YAARIYAAN) 4K MASTERED [PhYsIcIaN].mp4","uid":11181587,"size":476444221,"categoryP":"video","categoryS":"other","magnet":"?xt=urn:btih:67f0425490020a0e888d508f1b887f77b0eb42b1&amp;dn=SUNNY+SUNNY+%28YAARIYAAN%29+4K+MASTERED+%5BPhYsIcIaN%5D.mp4&amp;tr=udp%3A%2F%2Ftracker.openbittorrent.com%3A80&amp;tr=udp%3A%2F%2Fopen.demonii.com%3A1337&amp;tr=udp%3A%2F%2Ftracker.coppersurfer.tk%3A6969&amp;tr=udp%3A%2F%2Fexodus.desync.com%3A6969","seeders":0,"leechers":1,"uploader":"physician","files":1,"time":1412865268,"description":"General\nComplete name                            : D:SONGSVIDEOTRUE HD4KSUNNY SUNNY (YAARIYAAN) 4K MASTERED [PhYsIcIaN].mp4\nFormat                                   : MPEG-4\nFormat profile                           : Base Media / Version 2\nCodec ID                                 : mp42\nFile size                                : 454 MiB\nDuration                                 : 2mn 44s\nOverall bit rate mode                    : Variable\nOverall bit rate                         : 23.1 Mbps\nEncoded date                             : UTC 2014-10-08 15:46:45\nTagged date                              : UTC 2014-10-08 15:47:01\nÂ©TIM                                     : 00:00:00:00\nÂ©TSC                                     : 24\nÂ©TSZ                                     : 1\n\nVideo\nID                                       : 1\nFormat                                   : AVC\nFormat/Info                              : Advanced Video Codec\nFormat profile                           : &lt;a class=&quot;__cf_email__&quot; href=&quot;/cdn-cgi/l/email-protection&quot; data-cfemail=&quot;0e436f67604e423b203f&quot;&gt;[email&amp;#160;protected]&lt;/a&gt;&lt;script cf-hash='f9e31' type=&quot;text/javascript&quot;&gt;\n/* &lt;![CDATA[ */!function(){try{var t=&quot;currentScript&quot;in document?document.currentScript:function(){for(var t=document.getElementsByTagName(&quot;script&quot;),e=t.length;e--;)if(t[e].getAttribute(&quot;cf-hash&quot;))return t[e]}();if(t&amp;&amp;t.previousSibling){var e,r,n,i,c=t.previousSibling,a=c.getAttribute(&quot;data-cfemail&quot;);if(a){for(e=&quot;&quot;,r=parseInt(a.substr(0,2),16),n=2;a.length-n;n+=2)i=parseInt(a.substr(n,2),16)^r,e+=String.fromCharCode(i);e=document.createTextNode(e),c.parentNode.replaceChild(e,c)}}}catch(u){}}();/* ]]&gt; */&lt;/script&gt;\nFormat settings, CABAC                   : Yes\nFormat settings, ReFrames                : 3 frames\nCodec ID                                 : avc1\nCodec ID/Info                            : Advanced Video Coding\nDuration                                 : 2mn 44s\nBit rate mode                            : Variable\nBit rate                                 : 22.6 Mbps\nMaximum bit rate                         : 25.0 Mbps\nWidth                                    : 3 840 pixels\nHeight                                   : 2 160 pixels\nDisplay aspect ratio                     : 16:9\nFrame rate mode                          : Constant\nFrame rate                               : 24.000 fps\nStandard                                 : NTSC\nColor space                              : YUV\nChroma subsampling                       : 4:2:0\nBit depth                                : 8 bits\nScan type                                : Progressive\nBits/(Pixel*Frame)                       : 0.114\nStream size                              : 444 MiB (98%)\nLanguage                                 : English\nEncoded date                             : UTC 2014-10-08 15:46:45\nTagged date                              : UTC 2014-10-08 15:46:45\n\nAudio\nID                                       : 2\nFormat                                   : AAC\nFormat/Info                              : Advanced Audio Codec\nFormat profile                           : LC\nCodec ID                                 : 40\nDuration                                 : 2mn 44s\nSource duration                          : 2mn 44s\nBit rate mode                            : Variable\nBit rate                                 : 509 Kbps\nMaximum bit rate                         : 647 Kbps\nChannel(s)                               : 6 channels\nChannel positions                        : Front: L C R, Side: L R, LFE\nSampling rate                            : 48.0 KHz\nCompression mode                         : Lossy\nStream size                              : 10.0 MiB (2%)\n &lt;a href=&quot;\nhttp://bayimg.com/CaAFlAAGp&quot; rel=&quot;nofollow&quot; target=&quot;_NEW&quot;&gt;\nhttp://bayimg.com/CaAFlAAGp&lt;/a&gt;","torrent":{"xt":"urn:btih:67f0425490020a0e888d508f1b887f77b0eb42b1","amp;dn":"SUNNY+SUNNY+%28YAARIYAAN%29+4K+MASTERED+%5BPhYsIcIaN%5D.mp4","amp;tr":["udp%3A%2F%2Ftracker.openbittorrent.com%3A80","udp%3A%2F%2Fopen.demonii.com%3A1337","udp%3A%2F%2Ftracker.coppersurfer.tk%3A6969","udp%3A%2F%2Fexodus.desync.com%3A6969"],"infoHash":"67f0425490020a0e888d508f1b887f77b0eb42b1","infoHashBuffer":{"type":"Buffer","data":[103,240,66,84,144,2,10,14,136,141,80,143,27,136,127,119,176,235,66,177]},"announce":[],"urlList":[]}}